 <svg  version="1.0" xmlns="http://www.w3.org/2000/svg"  width="292.000000pt" height="242.000000pt" viewBox="0 0 292.000000 242.000000"  preserveAspectRatio="xMidYMid meet">  <g transform="translate(0.000000,242.000000) scale(0.100000,-0.100000)" fill="#b40000" stroke="none"> <path d="M2095 2014 c-117 -12 -255 -53 -255 -76 0 -5 -9 -6 -20 -3 -14 5 -59 -14 -148 -60 -154 -82 -158 -84 -302 -211 -160 -140 -251 -248 -306 -367 -14 -31 -67 -99 -134 -172 -99 -109 -125 -143 -102 -133 5 2 30 28 57 58 85 98 157 171 163 166 4 -5 -40 -56 -186 -215 -22 -23 -35 -32 -38 -23 -8 17 -44 15 -44 -2 0 -8 -11 -34 -25 -57 -33 -59 -32 -102 1 -69 8 8 19 8 38 0 15 -5 62 -11 104 -12 42 -1 -24 -5 -147 -8 l-225 -5 -18 -32 c-24 -40 -27 -108 -7 -129 10 -9 35 -15 67 -16 48 0 51 -1 41 -19 -12 -24 -2 -105 17 -136 13 -21 12 -22 -18 -25 -29 -3 -33 -7 -40 -43 -6 -28 -4 -54 7 -87 18 -56 18 -56 3 -55 -130 4 -578 -5 -578 -13 0 -6 112 -10 315 -10 273 0 315 2 315 15 0 8 -4 15 -8 15 -31 0 -46 153 -16 164 31 12 34 5 34 -74 0 -71 2 -81 22 -94 38 -25 172 -36 1013 -85 280 -16 373 -10 620 44 l220 48 203 -3 c141 -1 202 1 202 9 0 8 -54 11 -170 11 -105 0 -179 4 -194 11 -36 17 -49 63 -35 121 12 46 14 48 56 54 48 7 52 12 23 37 -11 9 -20 29 -20 46 0 15 9 40 20 54 25 31 25 42 3 44 -128 12 -177 59 -122 114 18 18 19 23 7 35 -12 12 -99 15 -541 15 l-527 1 0 118 c0 116 -1 119 -26 139 -52 41 -79 18 -67 -55 6 -35 5 -35 -23 -27 -33 9 -211 8 -249 -1 -16 -4 -25 -13 -25 -26 0 -10 -4 -22 -10 -25 -5 -3 -10 -21 -9 -38 l1 -32 12 40 13 40 128 8 c70 5 131 5 135 0 4 -4 10 -37 13 -72 l5 -63 -56 6 c-32 3 -103 9 -159 12 l-103 7 0 102 c0 83 3 105 17 116 12 11 47 13 142 11 118 -2 166 6 147 25 -4 4 -52 10 -107 11 -77 3 -99 7 -99 18 0 11 23 14 116 14 108 0 116 1 121 20 4 14 32 34 81 58 41 20 88 49 105 65 16 15 34 27 39 27 16 0 118 60 118 70 0 5 -12 13 -27 19 -24 9 -21 10 19 5 42 -6 56 -2 125 36 43 24 104 61 136 83 47 33 58 45 54 63 -4 21 0 23 33 21 28 -1 52 10 107 46 108 72 163 127 217 216 65 108 61 113 -96 116 -62 2 -131 1 -153 -1z m261 -27 c15 -14 -51 -121 -111 -182 -33 -34 -89 -80 -124 -103 -77 -51 -114 -54 -228 -17 -134 43 -142 27 -10 -20 121 -43 119 -50 -60 -155 -60 -35 -113 -60 -130 -60 -15 0 -64 9 -108 19 -47 12 -84 16 -89 11 -9 -9 -4 -12 94 -47 25 -9 48 -19 53 -23 4 -3 -15 -17 -42 -29 l-49 -23 -80 26 c-45 14 -86 26 -92 26 -21 0 -9 -18 18 -25 15 -4 49 -16 76 -28 l49 -21 -24 -19 c-13 -11 -49 -32 -80 -47 -54 -28 -59 -28 -172 -23 -64 3 -117 9 -117 13 0 11 229 215 315 281 211 162 502 326 678 384 86 28 116 45 79 45 -39 0 -240 -63 -320 -100 l-84 -39 30 52 c26 47 35 54 93 75 35 13 91 27 124 32 72 10 300 8 311 -3z m-551 -84 c-5 -10 -10 -32 -12 -49 -4 -26 -13 -35 -46 -50 -118 -53 -395 -260 -581 -435 -89 -84 -94 -81 -28 19 27 40 38 50 48 41 10 -8 15 -2 24 30 8 32 32 59 116 138 141 130 230 196 361 265 59 32 112 58 117 58 4 0 5 -8 1 -17z m165 -17 c0 -2 -51 -29 -112 -61 -247 -126 -533 -336 -701 -514 -61 -65 -87 -84 -87 -63 0 10 170 168 271 253 174 145 374 274 544 352 85 39 85 39 85 33z m-706 -656 c30 0 37 -3 26 -10 -23 -15 -94 -12 -116 6 -18 15 -17 15 15 10 18 -3 52 -6 75 -6z m-99 -20 l30 -20 -52 0 c-55 0 -54 1 -57 -50 -1 -10 -12 -15 -33 -16 -27 0 -42 -13 -109 -92 -46 -53 -82 -88 -87 -83 -6 6 34 58 94 126 57 64 107 123 110 132 4 11 8 13 12 6 4 -6 -5 -25 -19 -43 -15 -17 -24 -33 -21 -36 6 -6 67 70 67 85 0 17 32 13 65 -9z m214 -127 c17 -15 22 -33 27 -108 4 -65 3 -86 -5 -75 -6 8 -11 32 -11 53 0 30 -5 40 -24 48 -20 10 -24 19 -24 55 0 48 6 53 37 27z m-346 -227 c29 -3 70 -6 91 -6 69 0 34 -9 -59 -14 -51 -4 -84 -2 -77 2 13 9 -80 21 -163 22 -38 1 -39 1 -20 16 11 8 32 18 48 21 15 3 26 11 25 17 -2 6 20 38 47 70 l50 57 3 -89 3 -89 52 -7z m342 97 c3 -16 9 -45 14 -65 10 -44 8 -47 -24 -40 -24 4 -25 8 -25 68 0 50 3 64 15 64 8 0 17 -12 20 -27z m-539 -13 c8 0 14 -4 14 -10 0 -5 -11 -10 -25 -10 -15 0 -31 -10 -41 -25 -24 -36 -28 -24 -7 19 11 23 22 35 31 31 7 -3 20 -5 28 -5z m604 -118 c0 -7 -204 -5 -225 3 -5 2 43 4 108 4 64 1 117 -2 117 -7z m805 -2 c-7 -12 -298 -12 -390 0 -40 5 15 8 168 9 150 0 226 -2 222 -9z m-475 -10 c56 -5 16 -6 -115 -3 -110 3 -202 7 -204 9 -8 7 231 2 319 -6z m-91 -20 c129 -5 236 -12 238 -14 2 -2 -3 -16 -12 -32 -20 -38 -19 -50 5 -74 17 -17 33 -20 118 -20 53 0 144 4 202 9 174 16 335 24 328 16 -3 -4 -107 -13 -229 -21 -123 -8 -237 -18 -253 -22 -17 -4 -110 -4 -206 -1 -96 4 -395 10 -665 14 -269 4 -497 9 -505 13 -8 3 -50 6 -93 6 -65 1 -81 4 -92 20 -16 21 -10 69 12 105 l15 24 452 -6 c248 -3 556 -11 685 -17z m309 -2 c-2 -9 18 -15 67 -18 l70 -5 -85 -8 c-47 -4 -89 -12 -94 -17 -4 -4 37 -12 95 -16 l104 -8 -82 -10 c-46 -5 -83 -13 -83 -17 0 -5 62 -10 138 -10 108 -2 125 -3 82 -9 -69 -10 -194 -12 -242 -4 -46 8 -55 29 -33 79 19 47 20 43 -12 48 -16 2 -4 5 25 6 37 1 51 -3 50 -11z m472 6 c0 -3 -5 -14 -11 -25 -7 -15 -6 -27 5 -49 l14 -30 -181 1 c-107 1 -172 4 -157 9 14 4 84 8 157 9 76 1 134 5 138 11 4 7 -62 10 -189 10 -108 0 -196 4 -196 8 0 10 154 22 288 22 54 0 92 4 92 10 0 6 -68 10 -182 11 -107 1 -168 5 -148 9 41 9 370 13 370 4z m126 -142 c-3 -5 -58 -12 -123 -15 -114 -7 -345 -32 -390 -44 -13 -3 -23 -10 -23 -16 0 -7 56 -8 173 -5 177 5 172 2 -43 -27 -196 -26 -161 -37 112 -33 136 2 244 0 240 -3 -10 -10 -270 -39 -402 -46 l-115 -6 -2 42 c-3 47 17 95 45 110 26 14 89 21 312 36 107 7 201 13 208 14 7 0 11 -3 8 -7z m-1910 -29 c-4 -9 -9 -36 -13 -58 -8 -59 9 -72 104 -80 118 -10 119 -13 1 -13 l-107 0 -15 33 c-9 18 -19 54 -22 78 -7 48 -8 47 50 56 4 0 5 -7 2 -16z m539 7 c171 -2 288 -5 260 -7 -28 -3 -58 -12 -68 -21 -29 -26 -49 -72 -44 -98 l4 -24 -112 0 c-152 0 -504 19 -540 29 -29 7 -30 10 -27 57 1 27 4 54 6 59 2 6 46 10 107 9 57 -1 244 -3 414 -4z m1351 -50 l-1 -50 -86 0 c-47 0 -142 -2 -210 -5 -155 -6 -132 2 90 29 113 14 176 26 179 34 4 12 -19 12 -318 -3 -130 -6 -60 12 110 29 80 7 166 14 191 15 l45 1 0 -50z m-764 33 c-40 -2 -103 -2 -140 0 -37 2 -4 3 73 3 77 0 107 -2 67 -3z m208 -6 c0 -2 -7 -19 -17 -37 -9 -18 -16 -47 -17 -64 -1 -37 -11 -46 -54 -46 -27 0 -32 3 -28 18 2 9 10 43 17 75 l12 57 44 0 c23 0 43 -2 43 -3z m-252 -14 l143 -6 -7 -26 c-5 -14 -8 -46 -8 -71 l-1 -45 35 1 c19 1 44 2 55 3 31 1 163 -16 135 -17 -66 -5 -101 -23 -117 -60 -17 -40 -12 -97 10 -119 10 -11 27 -11 83 -3 38 5 78 9 89 9 28 -1 -143 -38 -179 -39 l-29 0 5 94 5 95 -76 5 c-42 4 -112 10 -156 15 l-80 8 98 2 c53 0 97 5 97 10 0 11 -82 17 -299 20 -90 1 -168 4 -174 8 -13 8 -2 66 18 97 17 25 21 26 114 26 53 0 160 -3 239 -7z m-380 -158 c275 -16 483 -31 546 -41 36 -6 38 -8 32 -36 -3 -17 -6 -57 -6 -89 l0 -59 -102 5 c-699 37 -1138 69 -1169 86 -16 8 -19 22 -19 86 l0 76 231 -7 c127 -4 346 -13 487 -21z m1084 -15 c-20 -17 -142 -46 -294 -71 -137 -23 -89 -32 126 -24 133 5 206 4 210 -3 7 -12 -36 -24 -47 -13 -4 4 -45 2 -90 -5 -45 -7 -142 -20 -216 -29 -149 -19 -151 -19 -151 45 0 78 22 86 320 119 158 17 183 14 142 -19z m38 0 c-5 -16 -6 -38 -3 -50 5 -18 1 -20 -39 -20 -25 0 -87 -2 -139 -5 l-94 -5 80 15 c131 24 168 38 183 68 17 35 23 34 12 -3z"/> </g> </svg> 